<?xml version="1.0" encoding="UTF-8"?>
<svg width="399px" height="503px" viewBox="0 0 399 503" version="1.1" xmlns="http://www.w3.org/2000/svg" xmlns:xlink="http://www.w3.org/1999/xlink">
    <title>capt america</title>
    <g id="Page-1" stroke="none" stroke-width="1" fill="none" fill-rule="evenodd" opacity="0.18191165">
        <g id="hi-fidelity-wireframe" transform="translate(-49.000000, -1602.000000)" fill="#EC1D23">
            <path d="M287.160613,1608.3785 C289.413586,1606.16156 293.689974,1604.62308 298.841327,1603.75695 L299.787323,1603.60688 C310.134518,1602.06135 323.606284,1603.12288 331.426345,1606.74475 C336.198548,1608.95499 339.102988,1614.39805 340.139666,1623.07391 L340.196351,1623.56845 L340.196351,1654.25192 L331.426345,1677.35161 L324.846974,1683.87002 L347.644338,1689.28957 C347.644338,1673.93254 355.087649,1666.25403 369.974272,1666.25403 C406.811585,1689.00454 432.364128,1733.01158 446.631902,1798.27515 C449.643933,1846.02407 441.58128,1866.39323 422.443946,1859.38262 C403.497984,1852.44212 385.139495,1828.69556 367.36848,1788.14293 L366.830144,1786.90892 L356.474245,1789.11077 L347.644338,1777.06768 L353.250098,1773.05432 L356.474245,1762.61568 L353.250098,1755.20954 L344.529246,1764.24316 C344.483464,1764.35531 344.4387,1764.4732 344.394953,1764.59683 L344.266764,1764.98493 C344.204196,1765.18759 344.143917,1765.40317 344.085927,1765.63166 L343.972999,1766.10586 C343.954686,1766.18776 343.936628,1766.2711 343.918824,1766.35587 L343.815052,1766.88172 C343.798265,1766.97224 343.781733,1767.06418 343.765455,1767.15757 L343.67084,1767.73508 C343.655579,1767.8342 343.640573,1767.93476 343.625821,1768.03675 L343.540362,1768.66592 C343.526628,1768.77365 343.513147,1768.88281 343.499922,1768.99341 L343.423619,1769.67424 C343.41141,1769.79058 343.399456,1769.90836 343.387757,1770.02757 L343.32061,1770.76005 L343.32061,1770.76005 L343.259568,1771.52697 L343.259568,1771.52697 L343.20463,1772.32832 L343.20463,1772.32832 L343.155796,1773.16412 L343.155796,1773.16412 L343.093991,1774.48238 L343.093991,1774.48238 L343.04592,1775.87813 L343.04592,1775.87813 L343.021503,1776.85168 L343.021503,1776.85168 L343.003191,1777.85966 L343.003191,1777.85966 L342.990982,1778.90208 L342.990982,1778.90208 L342.984878,1779.97894 C342.984369,1780.16129 342.984115,1780.34507 342.984115,1780.53029 C323.649431,1797.18447 319.562204,1814.94751 318.498775,1828.85334 L318.407564,1830.14556 C318.379864,1830.57243 318.354745,1830.99539 318.331832,1831.41427 L318.269342,1832.65856 L318.269342,1832.65856 L318.217854,1833.87752 L318.217854,1833.87752 L318.138935,1836.23582 L318.138935,1836.23582 L318.03133,1840.08842 L318.03133,1840.08842 L317.977513,1841.62466 L317.977513,1841.62466 L317.933473,1842.60825 C317.836998,1844.54224 317.685676,1846.27514 317.398932,1847.77424 C354.859356,1868.34437 379.380903,1898.87883 390.963573,1939.37762 L391.310603,1940.6079 L391.310603,1961.6083 C383.742855,1970.4592 376.092314,1976.8982 368.358981,1980.9253 C368.358981,1985.47176 365.491119,1988.00903 359.755394,1988.53711 C345.221269,2005.31727 331.102448,2018.84744 317.398932,2029.12763 C315.181219,2051.95792 321.87445,2064.84454 337.478625,2067.78748 L337.954207,2067.87362 L337.954207,2079.30588 L308.081676,2079.30588 C294.201265,2079.30588 284.154195,2073.49785 277.940468,2061.88179 C269.298904,2060.27095 264.978122,2055.09532 264.978122,2046.35492 C264.978122,2042.03737 266.782388,2037.45201 270.390921,2032.59884 L270.931878,2031.88671 L270.931878,2031.88671 L271.498596,2031.17075 C272.850991,2029.49573 274.413758,2027.78948 276.186897,2026.052 L276.959694,2025.30546 C277.09064,2025.18072 277.22266,2025.05581 277.355753,2024.93075 L278.167189,2024.17847 C278.304575,2024.05277 278.443035,2023.92692 278.582568,2023.8009 L279.432644,2023.04288 C281.733862,2021.01641 284.309851,2018.94915 287.160613,2016.84111 C287.229821,2016.7986 287.301649,2016.7512 287.376097,2016.69891 L287.607301,2016.52737 L287.607301,2016.52737 L287.854227,2016.32649 C287.896691,2016.29057 287.939811,2016.25342 287.983585,2016.21505 L288.254093,2015.97018 L288.254093,2015.97018 L288.540322,2015.69596 L288.540322,2015.69596 L288.842272,2015.39241 L288.842272,2015.39241 L289.159943,2015.05953 L289.159943,2015.05953 L289.493336,2014.69731 L289.493336,2014.69731 L289.842449,2014.30576 L289.842449,2014.30576 L290.207284,2013.88487 L290.207284,2013.88487 L290.784014,2013.19853 L290.784014,2013.19853 L291.188152,2012.7043 L291.188152,2012.7043 L291.608011,2012.18073 L291.608011,2012.18073 L292.267277,2011.34039 L292.267277,2011.34039 L292.961916,2010.43403 L292.961916,2010.43403 L293.44466,2009.79313 L293.44466,2009.79313 L294.198253,2008.77676 L294.198253,2008.77676 L294.98722,2007.6944 L294.98722,2007.6944 L295.811558,2006.54603 L295.811558,2006.54603 L296.67127,2005.33165 L296.67127,2005.33165 L297.566354,2004.05127 L297.566354,2004.05127 C303.058207,1973.78929 314.175185,1958.63361 330.917287,1958.58425 L331.426345,1958.58738 L337.954207,1951.35881 L340.196351,1942.43469 L338.261038,1941.32408 L338.261038,1941.32408 L335.761857,1939.87738 L335.761857,1939.87738 L333.35552,1938.46966 L333.35552,1938.46966 L331.611695,1937.43944 L331.611695,1937.43944 L329.920093,1936.43115 L329.920093,1936.43115 L327.745863,1935.12086 L327.745863,1935.12086 L326.693563,1934.48034 L326.693563,1934.48034 L324.658597,1933.22852 L324.658597,1933.22852 L323.1933,1932.31523 L323.1933,1932.31523 L321.320808,1931.13161 L321.320808,1931.13161 L319.977367,1930.26948 L319.977367,1930.26948 L318.68615,1929.42928 L318.68615,1929.42928 L317.854352,1928.88132 L317.854352,1928.88132 L317.045765,1928.3431 L317.045765,1928.3431 L315.876404,1927.55405 L315.876404,1927.55405 L315.125843,1927.0402 L315.125843,1927.0402 L314.398493,1926.53609 L314.398493,1926.53609 L313.350989,1925.79819 L313.350989,1925.79819 L312.355708,1925.08222 L312.355708,1925.08222 L311.412651,1924.38817 L311.412651,1924.38817 L310.521818,1923.71605 L310.521818,1923.71605 L309.956943,1923.28015 L309.956943,1923.28015 L309.153151,1922.64456 L309.153151,1922.64456 L308.646302,1922.23302 L308.646302,1922.23302 L308.162665,1921.83122 L308.162665,1921.83122 L307.702237,1921.43917 L307.702237,1921.43917 L307.265021,1921.05686 L307.265021,1921.05686 L306.851015,1920.68429 L306.851015,1920.68429 L306.46022,1920.32147 L306.46022,1920.32147 L306.092636,1919.96839 L306.092636,1919.96839 L305.748262,1919.62506 C305.692801,1919.56865 305.638307,1919.51265 305.58478,1919.45705 L305.275222,1919.12833 L305.275222,1919.12833 L304.988875,1918.80936 L304.988875,1918.80936 L304.725739,1918.50013 C304.641895,1918.39867 304.56192,1918.29884 304.485813,1918.20064 L304.309142,1918.19305 L304.309142,1918.19305 L304.109413,1918.17026 C304.074203,1918.1652 304.038032,1918.1595 304.000901,1918.15317 L303.766583,1918.1076 C303.725609,1918.09874 303.683674,1918.08925 303.640778,1918.07912 L303.371872,1918.01076 L303.371872,1918.01076 L303.079908,1917.92722 L303.079908,1917.92722 L302.764886,1917.82848 L302.764886,1917.82848 L302.426804,1917.71456 L302.426804,1917.71456 L302.065664,1917.58544 L302.065664,1917.58544 L301.681466,1917.44113 L301.681466,1917.44113 L301.061933,1917.19619 L301.061933,1917.19619 L300.390519,1916.91707 L300.390519,1916.91707 L299.914086,1916.71201 L299.914086,1916.71201 L298.892044,1916.2563 L298.892044,1916.2563 L298.064984,1915.87465 L298.064984,1915.87465 L297.484787,1915.60123 L297.484787,1915.60123 L295.933414,1914.85122 L295.933414,1914.85122 L294.237925,1914.00627 L294.237925,1914.00627 L292.398319,1913.06638 L292.398319,1913.06638 L290.82287,1912.24611 L290.82287,1912.24611 L288.723855,1911.13533 L288.723855,1911.13533 L286.940879,1910.17835 L286.940879,1910.17835 L284.582454,1908.89669 L284.582454,1908.89669 L282.079913,1907.52008 L282.079913,1907.52008 L278.33424,1905.43334 L278.33424,1905.43334 L274.898842,1903.4966 L274.898842,1903.4966 L271.255916,1901.42314 L271.255916,1901.42314 L267.405463,1899.21298 L258.398207,1899.21298 L256.393449,1901.19455 C256.061136,1901.52211 255.729731,1901.84832 255.399232,1902.17318 L253.427125,1904.10614 L253.427125,1904.10614 L251.476786,1906.00668 L251.476786,1906.00668 L249.548215,1907.87481 L249.548215,1907.87481 L247.641411,1909.71053 C247.325424,1910.01378 247.010345,1910.31568 246.696172,1910.61624 L244.82202,1912.40334 L244.82202,1912.40334 L242.969636,1914.15803 L242.969636,1914.15803 L241.13902,1915.88031 L241.13902,1915.88031 L239.330171,1917.57018 L239.330171,1917.57018 L237.54309,1919.22763 L237.54309,1919.22763 L235.777777,1920.85268 C235.485372,1921.12081 235.193875,1921.3876 234.903284,1921.65304 L233.170623,1923.22947 L233.170623,1923.22947 L231.459729,1924.77349 L231.459729,1924.77349 L229.770604,1926.28509 L229.770604,1926.28509 L228.103246,1927.76428 L228.103246,1927.76428 L226.457656,1929.21106 C226.185205,1929.44949 225.913661,1929.68657 225.643024,1929.9223 L224.030085,1931.32046 L224.030085,1931.32046 L222.438915,1932.68621 L222.438915,1932.68621 L220.869512,1934.01955 C220.609759,1934.23907 220.350913,1934.45725 220.092974,1934.67407 L218.556223,1935.95879 L218.556223,1935.95879 L217.041239,1937.2111 L217.041239,1937.2111 L215.548024,1938.431 L215.548024,1938.431 L214.076576,1939.61849 C213.833149,1939.8137 213.590629,1940.00757 213.349016,1940.20008 L211.91022,1941.33895 L211.91022,1941.33895 L210.493192,1942.44541 L210.493192,1942.44541 L209.097931,1943.51946 C208.636472,1943.87207 208.178642,1944.21928 207.724439,1944.56109 L206.372714,1945.57032 C197.880722,1951.85943 190.698427,1956.19845 184.825828,1958.58738 C178.594459,1969.42948 168.577446,1979.41273 154.774789,1988.53711 C155.446409,1988.40435 155.677546,1988.7156 155.468199,1989.47088 L155.400184,1989.68787 L155.400184,1989.68787 L155.310326,1989.92689 C155.293529,1989.96856 155.275823,1990.01114 155.257206,1990.05465 L155.134585,1990.32669 L155.134585,1990.32669 L154.990122,1990.62074 L154.990122,1990.62074 L154.823816,1990.93681 C154.794278,1990.99133 154.763831,1991.04676 154.732473,1991.10311 L154.533404,1991.45221 L154.533404,1991.45221 L154.312493,1991.82332 L154.312493,1991.82332 L153.940172,1992.42128 L153.940172,1992.42128 L153.664656,1992.84744 L153.664656,1992.84744 L153.367298,1993.29562 L153.367298,1993.29562 L152.880306,1994.00917 L152.880306,1994.00917 L152.344169,1994.77226 L152.344169,1994.77226 L151.959442,1995.30851 L151.959442,1995.30851 L151.341397,1996.15417 L151.341397,1996.15417 L150.674207,1997.04936 L150.674207,1997.04936 L149.708173,1998.32002 L149.708173,1998.32002 L148.926312,1999.33081 L148.926312,1999.33081 L148.377768,2000.03219 L148.377768,2000.03219 C137.376036,2002.2792 130.280228,2007.2124 127.090343,2014.83181 L126.934104,2015.21502 L94.5083582,2054.5759 L92.1712052,2074.51322 L94.5083582,2097.75177 L83.985678,2105 L63.4573912,2105 C57.4693623,2105 53.2211192,2100.03376 50.7126621,2090.10127 L50.4958427,2089.21199 C50.4604586,2089.06163 50.4254508,2088.91019 50.3908192,2088.75768 L50.1875448,2087.82973 C50.0881651,2087.35932 49.9921717,2086.87923 49.8995645,2086.38948 L49.7188652,2085.39709 L49.7188652,2085.39709 L49.6319018,2084.89123 L59.3746505,2059.46553 L73.8924123,2035.00584 L75.0114255,2032.31037 L75.0114255,2032.31037 L76.054603,2029.76381 L76.054603,2029.76381 L76.787219,2027.95163 L76.787219,2027.95163 L77.4771775,2026.22321 L77.4771775,2026.22321 L78.1244785,2024.57856 L78.1244785,2024.57856 L78.7291219,2023.01767 L78.7291219,2023.01767 L79.2911077,2021.54055 L79.2911077,2021.54055 L79.6420664,2020.60234 L79.6420664,2020.60234 L79.9740661,2019.70136 L79.9740661,2019.70136 L80.2871069,2018.83761 L80.2871069,2018.83761 L80.5811888,2018.01109 L80.5811888,2018.01109 L80.8563117,2017.2218 C80.9005857,2017.09335 80.9440696,2016.96645 80.9867636,2016.84111 C91.7025294,1976.55495 113.224064,1950.32567 145.551367,1938.15326 L146.53429,1937.7887 L152.67639,1925.05041 L170.265935,1902.07787 L167.760025,1895.34744 C177.357692,1883.01204 188.324446,1871.02377 200.660288,1859.38262 C205.4967,1846.20801 213.729477,1834.68713 225.358621,1824.81999 L225.163575,1824.31608 L225.163575,1824.31608 L224.788144,1823.32732 C224.727201,1823.16465 224.667072,1823.00303 224.607758,1822.84248 L224.261647,1821.89185 C224.205591,1821.73553 224.150349,1821.58027 224.095922,1821.42606 L223.779132,1820.51356 L223.779132,1820.51356 L223.481889,1819.62647 C223.433978,1819.48075 223.38688,1819.33607 223.340598,1819.19246 L223.072676,1818.3435 L223.072676,1818.3435 L222.824301,1817.51996 C222.705,1817.11455 222.593029,1816.71866 222.488389,1816.33231 L222.288882,1815.57231 L222.288882,1815.57231 L222.108922,1814.83773 L222.108922,1814.83773 L221.948509,1814.12856 C221.245526,1810.87844 221.181084,1808.45863 221.755183,1806.86911 C222.818749,1803.9244 226.808907,1801.79414 233.725657,1800.47831 L234.180898,1800.39365 L232.006231,1789.11077 L232.006231,1780.53029 C227.228316,1776.35247 223.84632,1768.13247 221.860244,1755.87031 L221.755183,1755.20954 L215.262501,1740.96832 L197.075119,1750.17221 L175.907654,1750.17221 L175.907654,1760.29064 L176.998269,1760.20324 C177.178275,1760.18961 177.357399,1760.17645 177.535642,1760.16375 L178.594516,1760.09316 L178.594516,1760.09316 L179.632229,1760.03379 L179.632229,1760.03379 L180.648782,1759.98562 L180.648782,1759.98562 L181.644174,1759.94866 L181.644174,1759.94866 L182.618406,1759.92291 L182.618406,1759.92291 L183.571477,1759.90836 C183.728559,1759.90687 183.884759,1759.90585 184.040077,1759.90529 L184.961407,1759.90756 C185.113199,1759.90888 185.264109,1759.91066 185.414137,1759.9129 L186.303726,1759.93198 C186.450228,1759.9361 186.595848,1759.94068 186.740586,1759.94573 L187.598434,1759.98162 C188.022068,1760.00237 188.437767,1760.02732 188.84553,1760.05648 L189.650477,1760.12039 C189.915265,1760.14357 190.176527,1760.16861 190.434263,1760.19552 L191.196888,1760.28185 L191.196888,1760.28185 L191.938353,1760.37939 C192.060167,1760.39658 192.181099,1760.41424 192.30115,1760.43236 L193.010873,1760.54672 C200.118832,1761.76628 203.94601,1764.7236 204.492409,1769.41867 L204.516636,1769.65098 L204.516636,1798.27515 C204.000581,1798.83902 203.491155,1799.38238 202.98836,1799.90524 L202.23914,1800.67414 C196.161118,1806.82798 191.078029,1809.90489 186.989874,1809.90489 C184.761054,1809.90489 181.878042,1808.59616 178.340836,1805.97869 L177.709833,1805.5032 C177.603534,1805.42168 177.496669,1805.33904 177.389238,1805.25526 L176.737861,1804.73901 L176.737861,1804.73901 L176.072903,1804.19559 L176.072903,1804.19559 L175.394363,1803.625 C175.280141,1803.52764 175.165353,1803.42914 175.05,1803.32952 L174.351087,1802.71817 C174.23347,1802.61402 174.115286,1802.50873 173.996537,1802.40231 L173.277252,1801.75021 L173.277252,1801.75021 L172.544384,1801.07093 C172.421108,1800.95546 172.297265,1800.83885 172.172857,1800.72111 L171.419617,1800.00107 L171.419617,1800.00107 L170.652795,1799.25387 C170.523859,1799.12708 170.394358,1798.99915 170.26429,1798.87008 L169.477095,1798.08213 L169.477095,1798.08213 L168.676319,1797.267 C168.541724,1797.12888 168.406563,1796.98963 168.270837,1796.84924 L167.449687,1795.99336 L167.449687,1795.99336 L166.614956,1795.1103 L166.614956,1795.1103 L165.766643,1794.20007 L165.766643,1794.20007 L164.904747,1793.26268 L164.904747,1793.26268 C162.266737,1792.18145 159.356334,1790.32163 156.173537,1787.6832 L155.404436,1787.03503 C154.630105,1786.37191 153.840084,1785.66394 153.034373,1784.91113 L152.223433,1784.14337 C151.271234,1783.2302 150.297679,1782.25599 149.302768,1781.22074 L148.444758,1780.31844 C148.157011,1780.01269 147.867521,1779.70195 147.576288,1779.38623 L146.697358,1778.42413 L146.697358,1778.42413 L145.807968,1777.43213 L145.807968,1777.43213 L144.908118,1776.41023 C144.455578,1775.89181 143.999115,1775.36217 143.538731,1774.82133 L142.612731,1773.72468 C142.457526,1773.53942 142.301885,1773.35291 142.145809,1773.16515 L141.204119,1772.02366 L141.204119,1772.02366 L140.25197,1770.85227 C139.932843,1770.45682 139.611973,1770.05639 139.28936,1769.65098 C139.02162,1769.16491 138.761911,1768.68337 138.510235,1768.20636 L138.017593,1767.25839 L138.017593,1767.25839 L137.546369,1766.3225 C137.469617,1766.16752 137.393757,1766.01305 137.31879,1765.85908 L136.879695,1764.94131 C130.525319,1751.41728 131.240186,1741.88048 139.024297,1736.33089 L139.28936,1736.14534 L163.082774,1711.42016 C172.310109,1700.69675 181.372762,1694.29648 190.270732,1692.21935 C192.187731,1685.42876 198.395926,1678.97389 208.895318,1672.85473 L209.45188,1672.53297 L272.981535,1667.99829 L281.567214,1657.02568 L281.567214,1623.56845 C282.937564,1621.52568 283.561608,1619.2562 284.026589,1617.04908 L284.20549,1616.17025 L284.20549,1616.17025 L284.5458,1614.44899 L284.5458,1614.44899 L284.723912,1613.61478 C285.186264,1611.55643 285.80275,1609.71464 287.160613,1608.3785 Z M412.035392,1725.92611 L412.035392,1743.34828 L401.51861,1737.71481 L413.769274,1754.55854 L413.769274,1780.3016 L423.967118,1772.28788 L432.398529,1791.50353 L428.203462,1761.60643 L434.043963,1753.97467 L433.207469,1751.93592 L422.304904,1750.55917 L412.035392,1725.92611 Z" id="capt-america"></path>
        </g>
    </g>
</svg>