<?xml version="1.0" encoding="UTF-8"?>
<svg width="305px" height="667px" viewBox="0 0 305 667" version="1.1" xmlns="http://www.w3.org/2000/svg" xmlns:xlink="http://www.w3.org/1999/xlink">
    <title>Ironman</title>
    <g id="Page-1" stroke="none" stroke-width="1" fill="none" fill-rule="evenodd" opacity="0.548195249">
        <g id="hi-fidelity-wireframe" transform="translate(-585.000000, -775.000000)" fill="#ECAC57">
            <path d="M745.655285,789.93881 C750.944403,801.312937 750.944403,814.513879 745.655285,829.541638 L745.655285,843.580145 L758.087509,843.580145 C761.344305,837.689338 768.764806,834.972167 780.349014,835.428632 L781.397536,835.477994 L781.397536,835.477994 L782.468319,835.544322 C783.550232,835.619135 784.665537,835.719399 785.814233,835.845114 L785.814233,822.944831 L786.202924,821.423743 L786.202924,821.423743 L786.611863,819.860184 C786.681707,819.596051 786.752395,819.330149 786.823926,819.062477 L787.263238,817.43521 L787.263238,817.43521 L787.722798,815.765472 L787.722798,815.765472 L788.202607,814.053262 L788.202607,814.053262 L788.702664,812.29858 L788.702664,812.29858 L789.22297,810.501427 L789.22297,810.501427 L789.763523,808.661802 L789.763523,808.661802 L790.324326,806.779705 L790.324326,806.779705 L790.905376,804.855137 L790.905376,804.855137 L791.506676,802.888098 L791.506676,802.888098 C792.580093,801.229215 795.06427,801.500845 798.959207,803.702985 L799.554028,804.047785 L799.554028,804.047785 C801.874274,810.704806 802.288096,817.003821 800.795493,822.944831 L800.795493,838.159933 L808.840066,840.708848 L810.22608,825.208944 L819.00435,801.799386 L829.781204,804.047785 L825.90156,825.208944 L822.680334,849.808099 L825.90156,849.808099 L854.580245,815.72126 C860.808879,819.270458 862.667371,823.273599 860.155719,827.730683 L859.87904,828.2069 L859.87904,828.2069 L859.672581,828.547021 L859.672581,828.547021 L859.448517,828.905257 L859.448517,828.905257 L859.079411,829.476575 L859.079411,829.476575 L858.811334,829.880097 L858.811334,829.880097 L858.37621,830.519345 L858.37621,830.519345 L857.734426,831.435076 L857.734426,831.435076 L857.387126,831.920114 L857.387126,831.920114 L856.833167,832.681635 L856.833167,832.681635 L856.032937,833.760397 L856.032937,833.760397 L855.386552,834.617019 L855.386552,834.617019 L854.463087,835.822583 L854.463087,835.822583 L853.469202,837.100605 L853.469202,837.100605 L852.127817,838.800027 L852.127817,838.800027 L850.975486,840.241079 L850.975486,840.241079 L849.436044,842.14429 L849.436044,842.14429 L847.443472,844.577587 L847.443472,844.577587 L846.027065,846.290358 L846.027065,846.290358 L843.770417,848.995373 L843.770417,848.995373 L840.937403,852.357277 L840.937403,852.357277 L839.657235,853.866023 L839.657235,853.866023 L836.516133,857.544931 L836.516133,857.544931 L835.579063,858.636805 L835.579063,858.636805 L841.020096,863.071548 L841.741093,862.782741 L841.741093,862.782741 L843.164751,862.22376 C843.870468,861.95048 844.567017,861.686517 845.254398,861.43187 L846.616936,860.934997 C855.393976,857.786069 862.621623,856.211605 868.299878,856.211605 C871.307087,856.803321 872.079602,859.147228 870.617424,863.243325 L870.414032,863.787536 C870.269989,864.156967 870.109048,864.539648 869.931209,864.935578 L845.372918,875.496149 L844.549579,876.600246 L844.549579,876.600246 L843.750818,877.68581 L843.750818,877.68581 L842.976634,878.75284 L842.976634,878.75284 L842.227027,879.801337 L842.227027,879.801337 L841.501997,880.8313 L841.501997,880.8313 L840.801545,881.842729 L840.801545,881.842729 L840.12567,882.835625 L840.12567,882.835625 L839.474372,883.809987 L839.474372,883.809987 L838.847651,884.765815 C838.745246,884.923576 838.643865,885.080564 838.543508,885.236779 L837.953653,886.164807 C837.857392,886.317934 837.762155,886.470289 837.667942,886.621871 L837.114953,887.522099 L837.114953,887.522099 L836.586542,888.403793 L836.586542,888.403793 L836.082708,889.266954 L836.082708,889.266954 L835.603451,890.11158 L835.603451,890.11158 L835.148771,890.937674 C834.927576,891.346087 834.715597,891.74755 834.512834,892.142063 L834.119598,892.921822 L834.119598,892.921822 L833.750939,893.683048 C833.632149,893.933701 833.517455,894.181265 833.406857,894.42574 L833.087352,895.149898 C831.807286,898.128613 831.167253,900.624682 831.167253,902.638104 C827.656791,906.760937 824.827818,908.749989 822.680334,908.605261 C817.06508,918.54835 807.767925,924.043 794.78887,925.089211 C792.60074,936.542655 789.609195,948.32361 785.814233,960.432076 L772.481062,974.064176 L768.667766,975.519596 L763.213841,991.922251 C783.666159,997.923512 793.097104,1022.33966 791.506676,1065.17069 L791.686861,1065.97855 L791.686861,1065.97855 L792.325354,1068.66212 L792.325354,1068.66212 L792.551711,1069.64187 L792.551711,1069.64187 L792.701415,1070.31834 L792.701415,1070.31834 L792.848176,1071.0133 L792.848176,1071.0133 L792.990296,1071.72663 L792.990296,1071.72663 L793.126073,1072.4582 C793.14808,1072.58164 793.169751,1072.70584 793.191053,1072.83078 L793.314131,1073.58947 L793.314131,1073.58947 L793.426618,1074.36607 C794.706126,1083.79234 793.330956,1097.06163 776.085527,1113.18211 L776.085527,1148.17389 L785.814233,1171.69292 C797.780415,1178.29605 800.771961,1186.47767 794.78887,1196.2378 L794.78887,1222.89337 C796.552827,1223.3003 798.864069,1225.76914 801.722596,1230.29987 L802.248359,1231.14636 L802.248359,1231.14636 L802.786183,1232.03829 L802.786183,1232.03829 L803.336068,1232.97566 L803.336068,1232.97566 L803.898015,1233.95848 L803.898015,1233.95848 L804.472024,1234.98673 L804.472024,1234.98673 L805.058093,1236.06043 L805.058093,1236.06043 L805.656224,1237.17957 L805.656224,1237.17957 L806.266417,1238.34415 C806.369121,1238.54203 806.472327,1238.74181 806.576036,1238.94348 L807.204321,1240.17622 L807.204321,1240.17622 L807.844666,1241.4544 L807.844666,1241.4544 L808.497074,1242.77803 L808.497074,1242.77803 L809.161542,1244.14709 L809.161542,1244.14709 L809.838072,1245.5616 L809.838072,1245.5616 L810.526664,1247.02155 L810.526664,1247.02155 L811.227316,1248.52694 L811.227316,1248.52694 L811.940031,1250.07777 L811.940031,1250.07777 L812.664806,1251.67404 L812.664806,1251.67404 L813.401643,1253.31576 L813.401643,1253.31576 L814.150541,1255.00291 L814.150541,1255.00291 L814.911501,1256.73551 L814.911501,1256.73551 L815.684522,1258.51354 L815.684522,1258.51354 L816.469604,1260.33702 L816.469604,1260.33702 L817.266748,1262.20594 L817.266748,1262.20594 L818.485078,1265.09453 L818.485078,1265.09453 L819.312375,1267.07705 L819.312375,1267.07705 L820.151734,1269.10501 L820.151734,1269.10501 L821.003154,1271.17842 L821.003154,1271.17842 L822.302899,1274.37373 L822.302899,1274.37373 L823.184472,1276.56074 L823.184472,1276.56074 L824.078107,1278.79319 L824.078107,1278.79319 L825.441174,1282.22707 C825.594133,1282.61429 825.747596,1283.00341 825.90156,1283.39442 L827.625926,1285.12683 L827.625926,1285.12683 L829.322818,1286.81255 L829.322818,1286.81255 L830.438817,1287.91041 L830.438817,1287.91041 L832.089922,1289.5183 L832.089922,1289.5183 L833.175395,1290.56427 L833.175395,1290.56427 L834.248658,1291.58949 L834.248658,1291.58949 L835.835659,1293.08841 L835.835659,1293.08841 L836.878396,1294.06174 L836.878396,1294.06174 L837.908924,1295.01432 L837.908924,1295.01432 L838.927241,1295.94614 L838.927241,1295.94614 L839.933348,1296.85721 L839.933348,1296.85721 L840.927245,1297.74752 L840.927245,1297.74752 L841.908931,1298.61707 L841.908931,1298.61707 L843.358567,1299.88249 L843.358567,1299.88249 L844.309728,1300.70016 L844.309728,1300.70016 L845.248678,1301.49707 L845.248678,1301.49707 L846.175419,1302.27323 L846.175419,1302.27323 L847.089949,1303.02863 L847.089949,1303.02863 L847.992269,1303.76327 L847.992269,1303.76327 L848.882379,1304.47716 L848.882379,1304.47716 L849.760278,1305.17029 C849.905577,1305.28409 850.050368,1305.39701 850.194649,1305.50908 L851.054234,1306.17108 L851.054234,1306.17108 L851.901608,1306.81232 C852.041819,1306.91747 852.181522,1307.02175 852.320716,1307.12516 L853.149774,1307.73527 L853.149774,1307.73527 L853.966623,1308.32463 L853.966623,1308.32463 L854.771261,1308.89323 L854.771261,1308.89323 L855.563689,1309.44108 L855.563689,1309.44108 L856.343907,1309.96817 L856.343907,1309.96817 L857.111914,1310.4745 L857.111914,1310.4745 L857.867712,1310.96008 C857.99266,1311.03928 858.1171,1311.11762 858.241031,1311.19509 L858.978513,1311.64953 L858.978513,1311.64953 L859.703785,1312.08322 L859.703785,1312.08322 L860.416847,1312.49616 L860.416847,1312.49616 L861.117698,1312.88834 C861.34928,1313.0156 861.578827,1313.13941 861.806339,1313.25976 L862.48277,1313.61043 L862.48277,1313.61043 L863.14699,1313.94034 C865.011651,1314.84569 866.72928,1315.50111 868.299878,1315.9066 L871.449119,1327.3804 C885.915024,1333.75428 890.69909,1344.14231 885.801318,1358.54448 L885.649938,1358.98214 C880.505125,1373.6117 881.477468,1390.76611 888.566966,1410.44535 C891.267125,1423.10324 888.836205,1433.45493 881.274207,1441.50043 L880.107963,1441.49265 L880.107963,1441.49265 L879.371389,1441.47882 L879.371389,1441.47882 L878.667551,1441.45808 L878.667551,1441.45808 L877.996449,1441.43043 C877.887327,1441.42525 877.779569,1441.41977 877.673175,1441.41401 L877.051179,1441.37599 L877.051179,1441.37599 L876.461919,1441.33105 L876.461919,1441.33105 L875.905396,1441.2792 L875.905396,1441.2792 L875.381609,1441.22044 C875.29704,1441.21007 875.213834,1441.19941 875.131992,1441.18847 L874.657311,1441.11934 C874.50454,1441.09514 874.357225,1441.06979 874.215366,1441.04329 L873.806158,1440.96033 C872.234799,1440.61467 871.449119,1440.10309 871.449119,1439.42559 L852.692003,1390.48269 L847.864685,1392.98719 L808.840066,1327.3804 L774.073898,1283.39442 L761.058776,1283.39442 L745.655285,1261.90945 L745.655285,1241.58366 L735.352901,1234.42704 L731.508681,1229.09051 L731.508681,1229.09051 L727.061892,1222.88222 L727.061892,1222.88222 L724.906519,1219.85807 L724.906519,1219.85807 L720.731817,1213.96978 L720.731817,1213.96978 L717.391461,1209.22584 L717.391461,1209.22584 L714.809871,1205.53734 L714.809871,1205.53734 L712.3089,1201.94366 L712.3089,1201.94366 L709.888547,1198.4448 L709.888547,1198.4448 L707.548813,1195.04075 L707.548813,1195.04075 L705.289696,1191.73151 L705.289696,1191.73151 L703.111198,1188.51709 L703.111198,1188.51709 L701.013318,1185.39748 L701.013318,1185.39748 L699.492814,1183.11999 L699.492814,1183.11999 L698.017658,1180.89584 L698.017658,1180.89584 L696.587849,1178.72502 L696.587849,1178.72502 L694.751979,1175.91356 L694.751979,1175.91356 L693.427982,1173.86718 L693.427982,1173.86718 L692.149332,1171.87414 L692.149332,1171.87414 L690.916031,1169.93442 L690.916031,1169.93442 L689.728077,1168.04805 L689.728077,1168.04805 L688.585471,1166.215 L688.585471,1166.215 L687.848926,1165.0226 L687.848926,1165.0226 L686.7819,1163.27844 L686.7819,1163.27844 L686.095742,1162.1453 L686.095742,1162.1453 L685.104295,1160.49003 L685.104295,1160.49003 L684.468524,1159.41615 L684.468524,1159.41615 L683.552657,1157.84976 L683.552657,1157.84976 L682.967272,1156.83514 L682.967272,1156.83514 L682.402041,1155.84422 L682.402041,1155.84422 C668.523213,1131.36747 651.482077,1084.42437 665.610532,1052.57141 L664.873949,1052.6691 L664.873949,1052.6691 L663.80108,1052.79478 L663.80108,1052.79478 L662.624485,1052.91524 L662.624485,1052.91524 L661.673969,1053.00216 L661.673969,1053.00216 L660.665107,1053.08614 L660.665107,1053.08614 L659.5979,1053.16718 L659.5979,1053.16718 L658.084197,1053.27066 L658.084197,1053.27066 L655.619158,1053.41609 L655.619158,1053.41609 L653.386681,1053.5283 L653.386681,1053.5283 L650.493774,1053.65219 L650.493774,1053.65219 L647.367486,1053.76431 L647.367486,1053.76431 L643.42518,1053.88027 L643.42518,1053.88027 L640.414762,1053.95331 L640.414762,1053.95331 L636.588326,1054.03017 L636.588326,1054.03017 L632.528509,1054.09528 L632.528509,1054.09528 L627.497085,1054.15639 L627.497085,1054.15639 L622.931606,1054.19604 L622.931606,1054.19604 L618.948762,1054.2201 L618.948762,1054.2201 L613.100502,1054.24007 L613.100502,1054.24007 L609.616016,1054.2443 L609.616016,1054.2443 L603.33575,1054.23927 L603.33575,1054.23927 L596.156483,1054.21602 L596.156483,1054.21602 L590.148401,1054.1841 L590.148401,1054.1841 L585.916302,1022.61672 L596.268831,1020.13949 L599.316587,1010.94372 L607.754685,1010.94372 L609.898393,1016.92175 C620.755538,1018.75472 628.756397,1022.10524 633.90097,1026.97331 C634.962404,1026.75387 636.143148,1026.33541 637.443202,1025.71791 L637.969586,1025.4603 C638.058378,1025.4156 638.147699,1025.37001 638.237551,1025.32353 L638.783025,1025.03408 L638.783025,1025.03408 L639.341226,1024.72339 C639.43532,1024.66984 639.529944,1024.6154 639.625098,1024.56008 L640.202388,1024.21755 C640.299664,1024.15869 640.39747,1024.09895 640.495806,1024.03832 L641.092185,1023.66395 L641.092185,1023.66395 L641.701291,1023.26834 L641.701291,1023.26834 L642.323123,1022.85151 L642.323123,1022.85151 L642.957682,1022.41344 L642.957682,1022.41344 L643.604967,1021.95414 C643.713908,1021.87582 643.82338,1021.79662 643.933382,1021.71653 L644.599756,1021.22539 L644.599756,1021.22539 L645.278857,1020.71302 L645.278857,1020.71302 L645.970684,1020.17942 L645.970684,1020.17942 L646.675238,1019.62459 L646.675238,1019.62459 L647.392518,1019.04853 L647.392518,1019.04853 L648.122524,1018.45124 L648.122524,1018.45124 L648.865257,1017.83272 L648.865257,1017.83272 L650.003218,1016.86514 L650.003218,1016.86514 L650.777766,1016.19354 L650.777766,1016.19354 L651.565041,1015.50072 L651.565041,1015.50072 L652.365043,1014.78667 L652.365043,1014.78667 L653.17777,1014.05138 L653.17777,1014.05138 L654.003224,1013.29487 L654.003224,1013.29487 L654.841405,1012.51713 L654.841405,1012.51713 L655.692311,1011.71815 L655.692311,1011.71815 L656.992533,1010.47989 L656.992533,1010.47989 L657.875256,1009.62784 L657.875256,1009.62784 L658.770705,1008.75456 L658.770705,1008.75456 L659.67888,1007.86005 L659.67888,1007.86005 L661.065005,1006.47849 L661.065005,1006.47849 L662.479765,1005.04915 L662.479765,1005.04915 L663.923158,1003.57205 L663.923158,1003.57205 L665.395186,1002.04718 L665.395186,1002.04718 L666.392446,1001.00407 L666.392446,1001.00407 L667.912198,999.399588 L667.912198,999.399588 L668.941273,998.303398 L668.941273,998.303398 L670.508749,996.619306 C670.684504,996.429531 670.860789,996.238871 671.037604,996.047327 C662.513753,986.318947 657.617255,972.803528 656.34811,955.50107 C655.404452,952.167023 653.448385,950.5 650.479908,950.5 L650.479908,937.676053 L645.962068,937.676053 C646.316493,935.827094 646.682784,934.023013 647.06094,932.263811 L647.443051,930.519568 C648.086495,927.63743 648.762899,924.879954 649.472263,922.247142 L649.901837,920.682414 C653.370068,908.284266 657.597698,898.758352 662.584726,892.104671 C669.649683,882.678623 681.839018,874.213468 699.152731,866.709204 L698.896074,864.610162 L698.896074,864.610162 L698.553229,861.90168 L698.553229,861.90168 L698.209658,859.29633 L698.209658,859.29633 L697.951503,857.409999 L697.951503,857.409999 L697.779172,856.184673 L697.779172,856.184673 L697.520336,854.395028 L697.520336,854.395028 L697.26109,852.663395 L697.26109,852.663395 L697.001436,850.989774 L697.001436,850.989774 L696.741374,849.374166 L696.741374,849.374166 L696.480902,847.816569 L696.480902,847.816569 L696.220022,846.316984 L696.220022,846.316984 L695.958733,844.875411 L695.958733,844.875411 L695.697035,843.49185 L695.697035,843.49185 L695.522343,842.601705 L695.522343,842.601705 L695.347469,841.737343 L695.347469,841.737343 L695.172413,840.898764 L695.172413,840.898764 L694.997176,840.085968 L694.997176,840.085968 L694.821757,839.298955 L694.821757,839.298955 L694.646157,838.537726 L694.646157,838.537726 L694.470374,837.802279 L694.470374,837.802279 L694.294411,837.092616 L694.294411,837.092616 L694.118265,836.408736 L694.118265,836.408736 L693.941938,835.750638 L693.941938,835.750638 L693.765429,835.118324 C693.735996,835.015087 693.706555,834.912925 693.677106,834.811836 L693.500325,834.218197 L693.500325,834.218197 L693.323362,833.65034 L693.323362,833.65034 L693.146217,833.108267 L693.146217,833.108267 L692.968891,832.591977 C692.939322,832.508077 692.909744,832.425252 692.88016,832.343501 L692.702561,831.865885 L692.702561,831.865885 L692.52478,831.414053 C692.495135,831.340896 692.465482,831.268814 692.435822,831.197806 L692.257769,830.784648 C692.228079,830.717937 692.19838,830.6523 692.168675,830.587738 L691.990349,830.213255 C691.960613,830.15299 691.930869,830.093799 691.901118,830.035682 L691.72252,829.699874 L691.72252,829.699874 L691.633153,829.541638 C690.266482,827.171667 689.798196,822.410898 690.014823,816.928232 L690.063415,815.892179 C690.101091,815.196381 690.14926,814.490933 690.207505,813.779095 L690.302379,812.706953 C690.541141,810.196005 690.900785,807.626741 691.363434,805.138915 L691.567966,804.078098 C691.848946,802.671409 692.162726,801.297831 692.505972,799.983441 L692.768878,799.009154 C693.842186,795.159655 695.173176,791.901517 696.671787,789.93881 L697.793881,788.473613 L697.793881,788.473613 L698.438193,787.651526 L698.438193,787.651526 L698.89874,787.07747 L698.89874,787.07747 L699.384176,786.486255 L699.384176,786.486255 L699.894573,785.880998 L699.894573,785.880998 L700.430005,785.26482 C708.010292,776.679846 722.797235,765.854828 745.655285,789.93881 Z M674.80692,894.938871 C669.450611,902.311199 669.092765,911.182416 674.007651,914.753289 C678.922536,918.324162 687.248985,915.242474 692.605294,907.870146 C697.961604,900.497818 698.319449,891.626601 693.404564,888.055728 C688.489679,884.484855 680.16323,887.566543 674.80692,894.938871 Z M806,870 C797.163444,870 790,877.163444 790,886 C790,894.836556 797.163444,902 806,902 C814.836556,902 822,894.836556 822,886 C822,877.163444 814.836556,870 806,870 Z M738.856995,814.857828 L739.567064,810.37463 L738.667968,810.692644 L738.667968,810.692644 L737.815389,810.985427 C737.677169,811.032122 737.540887,811.077765 737.406543,811.122357 L736.623738,811.377294 C736.497147,811.41768 736.372494,811.457016 736.249779,811.4953 L735.536748,811.71239 L735.536748,811.71239 L734.870233,811.904249 L734.870233,811.904249 L734.250234,812.070878 C733.852407,812.173553 733.48559,812.259407 733.149784,812.328441 C731.921994,812.580847 730.32537,812.769438 728.35991,812.894216 L727.426585,812.947275 L727.426585,812.947275 L726.940281,812.970406 L726.940281,814.857828 L738.856995,814.857828 Z M699.998669,807.385476 L699.998669,811.924558 L712.063927,813.588564 L712.063927,811.924558 L711.587228,811.825637 C711.273858,811.759626 710.969347,811.69349 710.673694,811.627227 L709.813312,811.428061 C709.535377,811.361546 709.2663,811.294905 709.006082,811.228137 L708.252003,811.027457 C707.40325,810.792889 706.663015,810.556775 706.031298,810.319116 C705.710426,810.198401 705.361556,810.05622 704.984689,809.892575 L704.398389,809.631009 C704.297173,809.584732 704.194207,809.537113 704.089491,809.488153 L703.440197,809.178291 L703.440197,809.178291 L702.748907,808.836233 C702.630192,808.77654 702.509727,808.715505 702.387513,808.653129 L701.633228,808.262775 L701.633228,808.262775 L700.836947,807.840224 L700.836947,807.840224 L699.998669,807.385476 Z" id="Ironman"></path>
        </g>
    </g>
</svg>