<?xml version="1.0" encoding="UTF-8"?>
<svg width="430px" height="375px" viewBox="0 0 430 375" version="1.1" xmlns="http://www.w3.org/2000/svg" xmlns:xlink="http://www.w3.org/1999/xlink">
    <title>Spiderman</title>
    <g id="Page-1" stroke="none" stroke-width="1" fill="none" fill-rule="evenodd" opacity="0.494215466">
        <g id="hi-fidelity-wireframe" transform="translate(-26.000000, -171.000000)" fill="#02518A" stroke="#FFFFFF">
            <path d="M209.477349,171.773365 C252.664122,171.773365 245.413427,234.893684 235.801109,248.503389 L236.883774,249.338247 L236.883774,249.338247 L237.83571,250.056489 L237.83571,250.056489 L238.656916,250.658116 L238.656916,250.658116 L239.018495,250.915198 L239.018495,250.915198 L239.499585,251.246158 L239.499585,251.246158 L239.779458,251.430355 L239.779458,251.430355 L240.026649,251.585398 L240.026649,251.585398 L240.241158,251.711288 L240.241158,251.711288 L240.422985,251.808023 C240.505727,251.849103 240.576214,251.879249 240.634445,251.898463 C241.623349,251.512538 242.597787,251.14905 243.55776,250.807999 L244.702783,250.409509 C259.687495,245.304523 271.060926,245.800841 278.823077,251.898463 L280.918315,253.814936 L280.918315,253.814936 L282.422062,255.217628 L282.422062,255.217628 L283.469165,256.217309 L283.469165,256.217309 L284.007528,256.743272 L284.007528,256.743272 L284.478466,257.213851 L284.478466,257.213851 L285.001502,257.755137 L285.001502,257.755137 L285.21807,257.988857 L285.21807,257.988857 L285.404672,258.197962 L285.404672,258.197962 L285.561308,258.382451 L285.561308,258.382451 L285.687977,258.542326 C285.706591,258.56692 285.723957,258.590489 285.740074,258.613032 L285.821794,258.735984 L285.821794,258.735984 C294.64131,257.447931 301.984092,258.788933 307.850139,262.758992 L322.006347,262.758992 C336.255224,252.121831 353.357519,251.710002 373.313229,261.523507 L386.360438,265.577926 L386.360438,265.577926 L394.145192,268.036826 L394.145192,268.036826 L398.675067,269.501779 L398.675067,269.501779 L400.739813,270.190702 L400.739813,270.190702 L402.094011,270.661653 L402.094011,270.661653 L402.896844,270.961708 L402.896844,270.961708 L403.207007,271.092575 L403.207007,271.092575 L403.349018,271.165882 L403.349018,271.165882 L411.800875,282.826276 L414.559665,279.228959 L414.559665,278.186669 L420.968598,272.265309 L423.362437,268.524037 L430.092213,268.524037 C432.632996,274.971814 429.591791,282.021911 420.968598,289.674327 L421.787515,290.592942 L421.787515,290.592942 L422.292395,291.171726 L422.292395,291.171726 L422.764423,291.723608 L422.764423,291.723608 L423.203601,292.248589 L423.203601,292.248589 L423.609926,292.746669 L423.609926,292.746669 L423.983401,293.217848 L423.983401,293.217848 L424.324024,293.662125 C424.378056,293.733929 424.43072,293.804613 424.482016,293.874176 L424.773361,294.278101 C424.819181,294.34318 424.863633,294.407138 424.906715,294.469976 L425.148783,294.833549 C425.449641,295.30038 425.662894,295.695473 425.788543,296.018831 L428.120357,302.509758 C428.648055,302.83754 429.16723,303.154805 429.677881,303.461553 L430.687818,304.061026 C431.187105,304.35375 431.677868,304.635958 432.160107,304.907648 L433.113221,305.437005 C438.135885,308.185456 442.188765,309.737276 445.27186,310.092466 L449.577842,310.578106 L449.577842,310.578106 L452.659346,310.906322 L452.659346,310.906322 L454.228725,311.062006 C454.324208,311.071117 454.417862,311.079975 454.509688,311.088578 C455.600766,311.664531 455.600766,312.614965 454.509688,313.939881 C454.199295,314.316797 453.733062,314.728778 453.135247,315.132085 L452.796262,315.350948 C450.15819,316.98202 445.391823,318.33482 440.157909,316.414701 C439.073742,316.016962 437.966075,315.532032 436.86053,314.998209 L436.124095,314.635504 C436.001501,314.573986 435.879005,314.511969 435.75664,314.449507 L435.02431,314.0698 L435.02431,314.0698 L434.296826,313.681911 L434.296826,313.681911 L433.575873,313.288362 L433.575873,313.288362 L432.160314,312.494368 L432.160314,312.494368 L428.547217,310.41085 L428.547217,310.41085 L427.65959,309.907781 L427.65959,309.907781 L426.824614,309.448715 L426.824614,309.448715 L426.300026,309.17132 L426.300026,309.17132 L425.803056,308.919787 C424.757425,308.404636 423.918149,308.089349 423.362437,308.089349 L418.629151,308.089349 L413.913677,315.585426 L406.501914,315.585426 L404.513976,318.079796 L397.277475,315.585426 L396.588838,306.27744 C390.362819,305.934117 386.519258,307.53783 385.058154,311.088578 C384.886259,311.506314 384.715599,311.914574 384.546173,312.313359 L384.041599,313.481292 C382.956377,315.950226 381.923306,318.018851 380.942385,319.687167 C375.294036,322.629984 371.053517,323.097793 368.220829,321.090594 C365.388141,319.083395 365.806897,315.975611 369.477097,311.767241 L376.340809,308.089349 L376.340809,303.165238 L379.32422,301.435725 L377.486925,297.383329 L377.486925,288.405505 C371.157037,288.461313 363.964793,291.453921 355.910191,297.383329 C354.385923,297.710167 352.070356,297.812959 349.431306,297.713602 L348.487206,297.670177 C348.009202,297.644303 347.522838,297.612214 347.030686,297.574031 L346.039424,297.489573 C344.543238,297.350804 343.010377,297.157905 341.510257,296.914124 L340.515789,296.744102 C336.23405,295.974982 332.354293,294.787252 330.550111,293.259252 L319.25975,293.259252 L317.658407,293.733059 L317.658407,293.733059 L316.076658,294.187494 C315.552674,294.335744 315.031956,294.480765 314.514503,294.622558 L312.971943,295.03825 C295.089702,299.77499 281.207926,300.556683 271.326617,297.383329 C269.614728,304.046362 264.234217,313.10874 257.865639,317.099667 L256.783912,318.492604 L256.783912,318.492604 L256.040949,319.463974 L256.040949,319.463974 L253.148567,323.294892 L253.148567,323.294892 L247.669182,330.592365 L247.669182,330.592365 L244.942374,334.192873 L244.942374,334.192873 L243.005299,336.722021 L243.005299,336.722021 L241.399766,338.791571 L241.399766,338.791571 L240.119333,340.41817 L240.119333,340.41817 L238.906421,341.932445 L238.906421,341.932445 L238.217028,342.778044 L238.217028,342.778044 L237.560172,343.570674 L237.560172,343.570674 L236.938939,344.305636 L236.938939,344.305636 L236.546097,344.761252 L236.546097,344.761252 L235.991093,345.389656 L235.991093,345.389656 L235.645262,345.769882 L235.645262,345.769882 L235.319835,346.117515 L235.319835,346.117515 L235.015726,346.431162 L235.015726,346.431162 L234.73385,346.709432 L234.73385,346.709432 L234.475121,346.950932 C234.392838,347.025149 234.314564,347.093005 234.240454,347.154269 C236.211106,350.248809 238.342436,353.404777 240.634445,356.622172 C259.602068,324.938293 280.690425,309.428391 303.899515,310.092466 C305.035272,309.762282 306.173089,309.331881 307.35651,308.864254 L309.594119,307.976888 L309.594119,307.976888 L310.64376,307.575941 L310.64376,307.575941 L311.455608,307.280322 L311.455608,307.280322 L312.009824,307.08749 L312.009824,307.08749 L312.575211,306.899191 L312.575211,306.899191 L313.15244,306.716397 C313.24967,306.686444 313.347421,306.656761 313.445707,306.627369 L314.041962,306.454657 L314.041962,306.454657 L314.651742,306.289883 C314.754537,306.263136 314.857922,306.23676 314.961914,306.210776 L315.59324,306.059731 L315.59324,306.059731 L316.239772,305.919054 C316.676011,305.828942 317.122835,305.746391 317.58114,305.672698 L318.27732,305.568963 C322.507413,304.988359 327.703796,305.17775 334.519965,307.082525 C337.588709,310.137322 340.333047,313.402526 342.920426,316.67497 L343.947404,317.983853 L343.947404,317.983853 L344.96002,319.290619 L344.96002,319.290619 L347.93552,323.169319 L347.93552,323.169319 L348.914509,324.438722 C349.077403,324.648989 349.240195,324.858566 349.402934,325.067392 L350.379135,326.310865 C354.121863,331.039303 357.889251,335.307104 362.284956,338.381854 L362.861922,338.776082 C363.436564,339.159431 364.022163,339.606834 364.618717,340.118293 L365.068186,340.513897 C365.51971,340.921511 365.977397,341.365157 366.441247,341.844833 L366.90715,342.336519 L366.90715,342.336519 L367.377162,342.852226 L367.377162,342.852226 L367.851283,343.391954 L367.851283,343.391954 L368.329512,343.955702 C368.409559,344.051662 368.489777,344.148622 368.570167,344.246584 L369.054558,344.846363 C369.216707,345.050293 369.37954,345.258226 369.543059,345.470162 L370.035667,346.117983 L370.035667,346.117983 L370.532384,346.789823 L370.532384,346.789823 L371.03321,347.485685 L371.03321,347.485685 L371.538144,348.205567 L371.538144,348.205567 L372.047186,348.949469 L372.047186,348.949469 L372.560337,349.717392 L372.560337,349.717392 L373.077596,350.509336 L373.077596,350.509336 L373.598964,351.3253 C373.686201,351.463296 373.773609,351.602292 373.861188,351.74229 L374.388719,352.594285 C374.476983,352.738286 374.565418,352.883288 374.654025,353.02929 L375.187718,353.917316 C375.277009,354.067322 375.366472,354.218329 375.456105,354.370337 L375.995961,355.294394 C376.086279,355.450405 376.176769,355.607417 376.26743,355.76543 L376.813448,356.725517 L376.813448,356.725517 L377.363575,357.709626 C377.455605,357.875645 377.547807,358.042666 377.640179,358.210687 L378.196469,359.230827 C378.289526,359.402851 378.382755,359.575877 378.476154,359.749904 L379.038607,360.806074 L379.038607,360.806074 L379.605167,361.886264 L379.605167,361.886264 L380.175837,362.990475 L380.175837,362.990475 L380.750614,364.118707 L380.750614,364.118707 L381.3295,365.270959 L381.3295,365.270959 L381.912495,366.447232 L381.912495,366.447232 L382.499598,367.647526 L382.499598,367.647526 L383.09081,368.87184 L383.09081,368.87184 L383.68613,370.120174 L383.68613,370.120174 L384.285558,371.392529 L384.285558,371.392529 L384.889095,372.688905 L384.889095,372.688905 L385.802104,374.678507 L385.802104,374.678507 L386.724356,376.722156 L386.724356,376.722156 L387.344327,378.114614 L387.344327,378.114614 L387.968406,379.531092 L387.968406,379.531092 L388.596594,380.971592 L388.596594,380.971592 L400.568463,392.457371 L400.568463,390.254505 C392.229057,376.023189 393.544228,363.567017 404.513976,352.885989 C415.233914,354.110619 425.327631,362.327495 434.795129,377.536617 L435.504017,378.690412 C436.447635,380.246285 437.384992,381.872081 438.316086,383.5678 L439.013233,384.852699 L439.013233,384.852699 L439.708031,386.163819 L439.708031,386.163819 L440.400481,387.50116 C440.630906,387.951311 440.86094,388.405831 441.090582,388.864722 L441.778336,390.254505 L441.778336,390.254505 C443.552671,409.571617 439.000012,431.833194 428.120357,457.039234 C423.352518,457.633882 418.162365,456.609931 412.549898,453.967381 L405.439184,442.662896 L405.439184,442.662896 L401.353241,436.238345 L401.353241,436.238345 L400.114296,434.338472 L400.114296,434.338472 L399.777295,433.845657 L399.777295,433.845657 C399.328829,433.216954 398.369126,432.476581 396.898184,431.624538 L396.357801,431.319181 L396.357801,431.319181 L395.774961,431.004549 C395.674283,430.951338 395.571837,430.89774 395.467621,430.843756 L394.821098,430.515214 L394.821098,430.515214 L394.132119,430.177399 L394.132119,430.177399 L393.400684,429.83031 L393.400684,429.83031 L392.626794,429.473948 L392.626794,429.473948 L391.810448,429.108311 L391.810448,429.108311 L372.034468,406.596804 C338.202212,395.103786 319.349137,377.200181 315.475245,352.885989 L314.864699,353.343576 L314.864699,353.343576 L314.293543,353.782293 C314.201633,353.85384 314.111364,353.9246 314.022736,353.994575 L313.510665,354.404985 L313.510665,354.404985 L313.037984,354.796525 L313.037984,354.796525 L312.604694,355.169194 C311.157108,356.440511 310.433316,357.365077 310.433316,357.942892 C301.798302,391.00475 276.400681,413.939224 234.240454,426.746316 C234.16464,427.669727 234.143919,428.773828 234.169918,430.020112 L234.19408,430.87161 L234.19408,430.87161 L234.231534,431.7627 L234.231534,431.7627 L234.281729,432.690847 L234.281729,432.690847 L234.344113,433.653517 C234.355496,433.816697 234.367363,433.981211 234.379704,434.147004 L234.459339,435.156702 L234.459339,435.156702 L234.549786,436.194583 L234.549786,436.194583 L234.650492,437.258111 L234.650492,437.258111 L234.760908,438.344751 L234.760908,438.344751 L234.880482,439.451968 L234.880482,439.451968 L235.008663,440.577225 L235.008663,440.577225 L235.144899,441.717989 L235.144899,441.717989 L235.28864,442.871723 L235.28864,442.871723 L235.517115,444.621096 L235.517115,444.621096 L235.759375,446.385389 L235.759375,446.385389 L236.013559,448.156047 L236.013559,448.156047 L236.277807,449.92451 L236.277807,449.92451 L236.642577,452.264259 L236.642577,452.264259 L237.017521,454.564611 L237.017521,454.564611 L237.302753,456.251819 L237.302753,456.251819 L237.684892,458.434419 L237.684892,458.434419 L237.970456,460.010018 L237.970456,460.010018 L238.438904,462.493803 L238.438904,462.493803 L238.801958,464.33002 L238.801958,464.33002 L239.149832,466.010208 L239.149832,466.010208 L239.316698,466.785453 L239.316698,466.785453 L239.556609,467.860127 L239.556609,467.860127 L239.70882,468.514083 L239.70882,468.514083 L239.854204,469.115088 L239.854204,469.115088 L239.99221,469.660604 L239.99221,469.660604 L240.122287,470.148097 L240.122287,470.148097 L240.243884,470.575032 L240.243884,470.575032 L240.35645,470.938872 L240.35645,470.938872 L240.459432,471.237083 C240.524771,471.41345 240.583353,471.544373 240.634445,471.626473 C240.941553,472.119967 241.659478,472.110647 242.788219,471.598512 L243.106243,471.446373 L243.106243,471.446373 L243.444639,471.2693 L243.444639,471.2693 L243.803405,471.067295 L243.803405,471.067295 L244.182542,470.840356 L244.182542,470.840356 L244.582051,470.588485 C244.650333,470.544429 244.719464,470.499334 244.789444,470.4532 L245.219509,470.163929 L245.219509,470.163929 L245.669945,469.849725 L245.669945,469.849725 L246.140752,469.510589 L246.140752,469.510589 L246.631931,469.146519 C246.715491,469.083763 246.799901,469.019968 246.885159,468.955134 L247.6754,468.343581 L247.6754,468.343581 L248.227692,467.904713 L248.227692,467.904713 L248.800354,467.440911 L248.800354,467.440911 L249.393388,466.952177 L249.393388,466.952177 L250.321134,466.172326 L250.321134,466.172326 L250.965095,465.62126 L250.965095,465.62126 L251.629428,465.04526 L251.629428,465.04526 L252.314131,464.444328 C252.429946,464.342095 252.54661,464.238823 252.664122,464.134512 L260.483992,441.850105 L260.137988,440.895876 L260.137988,440.895876 L259.652829,439.515305 L259.652829,439.515305 L259.351955,438.628772 L259.351955,438.628772 L259.069134,437.769316 L259.069134,437.769316 L258.804365,436.936939 L258.804365,436.936939 L258.557649,436.131639 L258.557649,436.131639 L258.328985,435.353418 L258.328985,435.353418 L258.118373,434.602274 L258.118373,434.602274 L257.925814,433.878208 L257.925814,433.878208 L257.751307,433.181221 C257.696147,432.953404 257.643996,432.730101 257.594853,432.511311 L257.456451,431.868479 L257.456451,431.868479 L257.336102,431.252725 C257.298994,431.051986 257.264895,430.855761 257.233805,430.664049 L257.14956,430.10245 C257.086878,429.645734 257.043,429.217225 257.017928,428.816921 L256.996867,428.350095 C256.954744,426.763593 257.244335,425.674647 257.865639,425.083259 C259.611208,423.421739 262.307814,422.480373 265.955459,422.259162 C272.501285,425.072611 276.745541,429.142086 278.688228,434.46759 L278.823077,434.850119 C280.699811,440.363655 284.68464,445.896943 290.777566,451.449985 L303.899515,456.149724 L315.475245,474.958761 L315.475245,481.390592 L312.165701,482.560891 L310.980216,482.461425 L310.980216,482.461425 L309.258133,482.308503 L309.258133,482.308503 L307.60342,482.151113 L307.60342,482.151113 L306.016079,481.989256 L306.016079,481.989256 L304.49611,481.822932 L304.49611,481.822932 L303.043512,481.65214 L303.043512,481.65214 L301.658286,481.476881 L301.658286,481.476881 L300.340431,481.297154 L300.340431,481.297154 L299.089947,481.11296 L299.089947,481.11296 L298.29372,480.987681 L298.29372,480.987681 L297.527436,480.860418 L297.527436,480.860418 L296.791095,480.731169 L296.791095,480.731169 L296.084697,480.599934 L296.084697,480.599934 L295.408241,480.466714 L295.408241,480.466714 L294.761728,480.331508 L294.761728,480.331508 L294.145159,480.194317 L294.145159,480.194317 L293.558532,480.05514 L293.558532,480.05514 L293.001848,479.913978 C292.911562,479.890285 292.822525,479.86651 292.734734,479.842652 L292.222965,479.698511 L292.222965,479.698511 L291.741138,479.552385 L291.741138,479.552385 L291.289254,479.404274 L291.289254,479.404274 L290.867313,479.254176 C290.528172,479.128268 290.220221,479.000292 289.943461,478.870247 L289.62632,478.7132 C289.122704,478.449801 288.74385,478.178129 288.489758,477.898184 L287.956446,477.291 L287.956446,477.291 L287.447876,476.68676 L287.447876,476.68676 L286.709761,475.783344 L286.709761,475.783344 L285.673834,474.482006 L285.673834,474.482006 L284.037732,472.378245 L284.037732,472.378245 L282.110355,469.853174 L282.110355,469.853174 L280.757831,468.061059 L280.757831,468.061059 L277.381774,463.539107 L277.381774,463.539107 L276.017582,461.697272 L276.017582,461.697272 L274.260544,462.971964 L276.017582,503.768638 L275.704009,504.648664 L275.704009,504.648664 L275.391609,505.493635 L275.391609,505.493635 L275.080383,506.303551 C274.976836,506.56768 274.873485,506.825968 274.77033,507.078412 L274.46145,507.818219 C274.410068,507.938598 274.358735,508.057518 274.307451,508.174976 L274.000331,508.862201 C273.795976,509.308665 273.592403,509.73176 273.389613,510.131485 L273.086014,510.713545 C271.873964,512.971674 270.690077,514.388489 269.534351,514.963988 L269.527085,515.457836 C269.52468,515.544557 269.521686,515.633441 269.518116,515.724421 L269.489885,516.294916 L269.489885,516.294916 L269.448436,516.912514 L269.448436,516.912514 L269.394374,517.57402 L269.394374,517.57402 L269.328305,518.276236 L269.328305,518.276236 L269.208018,519.398902 L269.208018,519.398902 L269.064127,520.595188 L269.064127,520.595188 L268.956097,521.428287 L268.956097,521.428287 L268.839092,522.286115 L268.839092,522.286115 L268.648084,523.612234 L268.648084,523.612234 L268.440292,524.976018 L268.440292,524.976018 L268.217764,526.366679 L268.217764,526.366679 L268.062236,527.303392 L268.062236,527.303392 L267.736683,529.185485 L267.736683,529.185485 L267.482223,530.592056 L267.482223,530.592056 L267.22121,531.982356 L267.22121,531.982356 L266.866538,533.792134 L266.866538,533.792134 L266.598195,535.102519 L266.598195,535.102519 L266.33012,536.360676 L266.33012,536.360676 L266.064361,537.555819 L266.064361,537.555819 L265.889485,538.312245 L265.889485,538.312245 L265.717153,539.032675 L265.717153,539.032675 L265.464752,540.038834 L265.464752,540.038834 L265.301434,540.655288 L265.301434,540.655288 L265.142783,541.224558 L265.142783,541.224558 L264.989404,541.743449 L264.989404,541.743449 L264.841905,542.208765 C264.817845,542.281675 264.794055,542.35222 264.770549,542.420332 L264.633005,542.799291 C264.543706,543.031763 264.459337,543.223191 264.380707,543.369314 C264.070217,543.94631 263.257388,544.380609 261.942218,544.672212 L261.532597,544.755412 L261.532597,544.755412 L261.092836,544.83005 C260.941225,544.853502 260.784591,544.875528 260.622934,544.896126 L260.122892,544.95364 C260.03704,544.962513 259.949932,544.971028 259.861568,544.979187 L259.316315,545.023859 L259.316315,545.023859 L258.740922,545.059968 L258.740922,545.059968 L258.135388,545.087516 C258.031954,545.091394 257.927265,545.094915 257.821319,545.09808 L257.170575,545.112785 L257.170575,545.112785 L256.48969,545.118929 L256.48969,545.118929 L255.778665,545.118929 C255.657649,545.118929 255.535378,545.11392 255.41185,545.11209 L254.655614,545.096829 L254.655614,545.096829 L253.869238,545.073007 L253.869238,545.073007 L252.633161,545.021219 L252.633161,545.021219 L251.329268,544.950167 L251.329268,544.950167 L250.42233,544.892097 L250.42233,544.892097 L249.485252,544.825465 L249.485252,544.825465 L248.518034,544.750271 L248.518034,544.750271 L247.010693,544.621427 L247.010693,544.621427 L245.435536,544.473319 L245.435536,544.473319 C196.27233,507.830446 171.075606,456.424175 169.845364,390.254505 L169.605087,389.529671 L169.605087,389.529671 L169.365685,388.781898 L169.365685,388.781898 L169.127469,388.01264 L169.127469,388.01264 L168.890752,387.223351 L168.890752,387.223351 L168.655846,386.415484 L168.655846,386.415484 L168.307567,385.172028 L168.307567,385.172028 L168.078557,384.324074 L168.078557,384.324074 L167.740586,383.027302 L167.740586,383.027302 L167.519425,382.148346 L167.519425,382.148346 L167.30195,381.259532 L167.30195,381.259532 L166.983333,379.911008 L166.983333,379.911008 L166.674769,378.548479 L166.674769,378.548479 L166.377312,377.176852 L166.377312,377.176852 L166.185699,376.259802 L166.185699,376.259802 L165.999803,375.342341 L165.999803,375.342341 L165.819938,374.425924 L165.819938,374.425924 L165.646416,373.512003 L165.646416,373.512003 L165.479549,372.602032 L165.479549,372.602032 L165.31965,371.697464 L165.31965,371.697464 L165.09355,370.353923 L165.09355,370.353923 L164.884885,369.030716 L164.884885,369.030716 L164.755983,368.162296 L164.755983,368.162296 L164.635611,367.306546 L164.635611,367.306546 L164.471731,366.049859 L164.471731,366.049859 L164.328803,364.829856 L164.328803,364.829856 L164.245678,364.039322 L164.245678,364.039322 L164.172646,363.268727 L164.172646,363.268727 L164.11002,362.519522 C164.100467,362.396518 164.09136,362.274466 164.082707,362.153396 L164.036275,361.439003 L164.036275,361.439003 L164.00103,360.749635 C163.996105,360.636907 163.99166,360.525281 163.9877,360.41479 L163.969821,359.765684 L163.969821,359.765684 L163.96391,359.145236 C163.964058,358.64054 163.976999,358.167211 164.003545,357.729033 L164.041984,357.220335 C164.147157,356.073871 164.361555,355.214862 164.703043,354.726395 L164.59757,354.461269 L164.59757,354.461269 L164.485125,354.150168 L164.485125,354.150168 L164.365924,353.794896 L164.365924,353.794896 L164.174932,353.183115 L164.174932,353.183115 L163.969963,352.4821 L163.969963,352.4821 L163.75175,351.697944 L163.75175,351.697944 L163.360625,350.222797 L163.360625,350.222797 L163.024989,348.907524 L163.024989,348.907524 L162.012732,344.795131 L162.012732,344.795131 L160.581041,338.891947 L160.581041,338.891947 L160.123125,337.029614 L159.576464,334.841848 L159.576464,334.841848 L159.072036,332.868069 L159.072036,332.868069 L158.667022,331.321905 L158.667022,331.321905 L158.161118,329.448568 L158.161118,329.448568 L157.758322,328.01098 L157.758322,328.01098 L157.458231,326.975737 L157.458231,326.975737 L157.16049,325.982532 L157.16049,325.982532 L156.768134,324.731781 L156.768134,324.731781 L156.478078,323.854957 L156.478078,323.854957 L156.287026,323.302182 L156.287026,323.302182 L156.098026,322.776452 L156.098026,322.776452 L155.911246,322.279162 L155.911246,322.279162 L155.726852,321.811705 L155.726852,321.811705 L155.545014,321.375474 C155.51493,321.305448 155.484959,321.236782 155.455106,321.169504 L155.277415,320.782726 L155.277415,320.782726 L155.1027,320.430658 C154.698631,319.650747 154.32023,319.165686 153.977094,319.055147 C153.889621,318.93089 153.81033,318.769521 153.739221,318.57104 L153.670839,318.360187 L153.670839,318.360187 L153.607911,318.124593 L153.607911,318.124593 L153.550438,317.864256 C153.541314,317.818805 153.532417,317.772323 153.523747,317.72481 L153.474456,317.427361 L153.474456,317.427361 L153.43062,317.10517 L153.43062,317.10517 L153.392238,316.758238 L153.392238,316.758238 L153.359311,316.386563 L153.359311,316.386563 L153.331839,315.990147 L153.331839,315.990147 L153.309821,315.568989 L153.309821,315.568989 L153.293257,315.123089 L153.293257,315.123089 L153.27864,314.407849 L153.27864,314.407849 L153.275713,313.900095 L153.275713,313.900095 L153.28155,313.092072 L153.28155,313.092072 L153.29966,312.228381 L153.29966,312.228381 L153.318551,311.621659 L153.318551,311.621659 L153.342897,310.990196 L153.342897,310.990196 L153.407953,309.653043 L153.407953,309.653043 L153.494828,308.216924 L153.494828,308.216924 L153.60352,306.681837 L153.60352,306.681837 L153.699358,305.465575 L153.699358,305.465575 L153.807469,304.193644 L153.807469,304.193644 L153.970708,302.411139 L153.970708,302.411139 L154.155765,300.529667 L154.155765,300.529667 L154.417768,298.038654 L154.417768,298.038654 L154.651917,295.934505 L154.651917,295.934505 L154.907884,293.73139 L154.907884,293.73139 L155.185669,291.429307 L155.185669,291.429307 C154.148199,287.722654 153.296904,284.197504 152.631786,280.853857 C148.608827,278.815683 144.135172,274.747386 139.210863,268.649207 L138.429596,267.669468 L138.429596,267.669468 L137.640838,266.655991 C137.376671,266.312543 137.111255,265.963472 136.844591,265.608777 L134.575841,264.621696 L134.575841,264.621696 L132.353887,263.666474 L132.353887,263.666474 L130.898582,263.047358 L130.898582,263.047358 L129.464077,262.442403 L129.464077,262.442403 L127.351315,261.561519 L127.351315,261.561519 L125.968805,260.991963 L125.968805,260.991963 L124.607094,260.436566 L124.607094,260.436566 L123.266182,259.895329 L123.266182,259.895329 L121.946067,259.368252 L121.946067,259.368252 L120.646752,258.855334 L120.646752,258.855334 L119.368235,258.356576 L119.368235,258.356576 L118.110516,257.871978 L118.110516,257.871978 L116.262935,257.17163 L116.262935,257.17163 L115.057212,256.722431 L115.057212,256.722431 L113.872288,256.287392 L113.872288,256.287392 L112.708163,255.866512 L112.708163,255.866512 L111.564836,255.459792 L111.564836,255.459792 L110.442307,255.067232 L110.442307,255.067232 L109.340577,254.688832 L109.340577,254.688832 L108.259646,254.324591 L108.259646,254.324591 L107.199513,253.974509 L107.199513,253.974509 L106.160178,253.638588 L106.160178,253.638588 L105.141642,253.316826 L105.141642,253.316826 L103.652835,252.860733 L103.652835,252.860733 L102.686295,252.57437 L102.686295,252.57437 L101.740554,252.302167 L101.740554,252.302167 L100.815611,252.044124 L100.815611,252.044124 L99.9114668,251.80024 L99.9114668,251.80024 L99.0281209,251.570516 L99.0281209,251.570516 L98.1655735,251.354952 L98.1655735,251.354952 L97.3238246,251.153548 L97.3238246,251.153548 L96.5028742,250.966303 C96.3677824,250.936275 96.2335571,250.906838 96.1001984,250.87799 L95.3104458,250.711985 L95.3104458,250.711985 L94.5414916,250.560139 C94.4150657,250.536012 94.2895065,250.512474 94.1648139,250.489526 L93.4270574,250.35892 C93.3058312,250.338333 93.1854716,250.318335 93.0659786,250.298927 L92.3594199,250.189561 L92.3594199,250.189561 L91.6736597,250.094354 L91.6736597,250.094354 L91.0086979,250.013306 L91.0086979,250.013306 L90.3645347,249.946419 L90.3645347,249.946419 L89.7411699,249.893691 C89.639009,249.886083 89.5377147,249.879065 89.437287,249.872637 L88.8451199,249.841149 C87.9724682,249.804536 87.1700115,249.815712 86.4377496,249.874677 L85.7709694,250.610619 L85.7709694,250.610619 L84.9989652,251.486919 L84.9989652,251.486919 L84.5077392,252.065427 L84.5077392,252.065427 L84.0917505,252.576464 L84.0917505,252.576464 L83.8562234,252.87967 L83.8562234,252.87967 L83.6541351,253.152889 C83.6232403,253.195927 83.5937388,253.237715 83.5656305,253.278254 L83.4137006,253.506492 L83.4137006,253.506492 L83.2952095,253.704742 C83.2443236,253.796371 83.2059774,253.876754 83.1801707,253.945892 L83.1801707,259.688988 L82.0959411,259.688988 C83.0713397,263.635514 82.6290259,265.608777 80.7689998,265.608777 C78.9089737,265.608777 77.8256099,264.962542 77.5189083,263.670071 L74.4898346,266.547343 L74.4898346,269.665851 L75.4344013,270.433751 L75.4344013,285.478852 C70.3019861,286.782277 67.4211076,284.472633 66.7917655,278.54992 L66.7378686,278.032315 L66.7378686,278.032315 L66.6398741,277.02703 L66.6398741,277.02703 L66.5549456,276.061646 L66.5549456,276.061646 L66.483083,275.136162 L66.483083,275.136162 L66.4242864,274.250577 C66.4155758,274.106305 66.4074096,273.963695 66.3997878,273.822748 L66.36059,272.997014 C66.3551459,272.862716 66.3502461,272.730081 66.3458908,272.599109 L66.3262919,271.833225 C66.2849165,269.471101 66.4400744,267.70914 66.7917655,266.547343 C65.470406,264.154973 63.9655268,262.958787 62.2771279,262.958787 L61.7461995,262.954117 L61.7461995,262.954117 L60.5309506,262.924304 L60.5309506,262.924304 L59.100573,262.866579 L59.100573,262.866579 L57.9716121,262.806484 L57.9716121,262.806484 L57.0424446,262.748014 L57.0424446,262.748014 L56.0489551,262.676704 L56.0489551,262.676704 L54.9968552,262.591338 L54.9968552,262.591338 L54.2657148,262.526015 L54.2657148,262.526015 L53.1286243,262.414512 L53.1286243,262.414512 L52.3461121,262.330638 L52.3461121,262.330638 L51.546013,262.23871 L51.546013,262.23871 L50.7300194,262.13837 L50.7300194,262.13837 L49.8998235,262.029254 L49.8998235,262.029254 L49.057118,261.911003 L49.057118,261.911003 L48.2035951,261.783255 L48.2035951,261.783255 L47.3409472,261.64565 C47.1965062,261.621874 47.0517555,261.597673 46.9067303,261.573038 L46.0335684,261.419969 L46.0335684,261.419969 L45.1555125,261.256141 L45.1555125,261.256141 L44.2742551,261.081191 C44.1272061,261.051086 43.9800942,261.020502 43.8329547,260.989433 L42.9500683,260.797125 C42.8029594,260.764081 42.6558933,260.730537 42.5089054,260.696484 L41.6281979,260.486005 C41.4816637,260.449888 41.3352781,260.413248 41.1890765,260.376076 L40.3143558,260.146615 L40.3143558,260.146615 L39.4457419,259.904046 L39.4457419,259.904046 L38.5849271,259.64801 L38.5849271,259.64801 L37.7336039,259.378146 L37.7336039,259.378146 L36.8934646,259.094092 C33.2795375,257.831926 30.0282945,256.15992 27.7594385,253.945892 C26.4401292,251.886917 26.6445966,250.31727 28.3728407,249.23695 C28.7796439,249.388898 29.1825396,249.537284 29.5815277,249.68211 L30.7667692,250.105902 L30.7667692,250.105902 L31.9285651,250.508326 C32.3119229,250.638906 32.6913731,250.765925 33.0669156,250.889383 L34.1818207,251.249072 L34.1818207,251.249072 L35.2732802,251.587393 C44.6309989,254.426918 51.3471925,254.859019 55.4218609,252.883698 C56.3508814,251.532853 56.595621,250.31727 56.1560797,249.23695 C52.4503383,247.811847 49.245628,246.158949 46.5419489,244.278257 C43.419856,241.652958 43.419856,236.312855 45.5902998,236.186751 C46.9582623,236.107272 48.3953525,237.227976 49.9004466,238.63134 L50.4344782,239.136887 L50.4344782,239.136887 L51.5194395,240.182546 L51.5194395,240.182546 L52.0703473,240.704729 C53.9160519,242.42968 55.8551476,243.948242 57.8858042,243.766381 C58.2121598,243.737153 58.5229052,243.705144 58.8180406,243.670354 L59.3874979,243.597064 L59.3874979,243.597064 L59.9153284,243.516358 C61.6898879,243.220905 62.6995537,242.789164 62.9443257,242.221135 L62.9443257,238.384418 L67.7094534,238.384418 L68.3802521,239.437831 C77.8603536,239.204795 83.8795194,236.934225 86.4377496,232.626121 L132.185669,232.626121 C132.596587,232.559841 133.002791,232.49611 133.404279,232.434928 L134.594598,232.259031 C134.790627,232.23099 134.985477,232.203585 135.179148,232.176818 L136.327031,232.023864 L136.327031,232.023864 L137.446621,231.886206 L137.446621,231.886206 L138.537921,231.763843 L138.537921,231.763843 L139.60093,231.656775 C139.77574,231.640205 139.949372,231.624272 140.121825,231.608977 L141.142397,231.524852 C141.310134,231.512106 141.476693,231.499997 141.642073,231.488525 L142.620208,231.427344 C142.941538,231.409499 143.258152,231.394204 143.570052,231.381458 L144.491604,231.350867 C146.457653,231.301157 148.224484,231.359152 149.792097,231.524852 L150.501466,231.608977 C152.123652,231.823112 153.514794,232.16216 154.674891,232.626121 C155.148502,232.815533 155.635259,233.013762 156.131391,233.218497 L157.644138,233.849913 L157.644138,233.849913 L159.969219,234.839933 L159.969219,234.839933 L163.535656,236.373554 L163.535656,236.373554 L164.857415,236.937496 L164.857415,236.937496 L166.120007,237.468943 C166.324594,237.55425 166.526031,237.637784 166.723973,237.719333 L167.11984,237.757797 L167.11984,237.757797 L167.924958,237.846664 L167.924958,237.846664 L168.746432,237.949814 L168.746432,237.949814 L169.582479,238.065287 L169.582479,238.065287 L170.431312,238.191123 L170.431312,238.191123 L171.291146,238.325361 L171.291146,238.325361 L176.137097,239.126231 L176.137097,239.126231 L177.024921,239.26729 L177.024921,239.26729 L177.910356,239.402045 L177.910356,239.402045 L178.791616,239.528536 C178.938046,239.54882 179.084228,239.568679 179.230123,239.58807 L180.101775,239.69849 L180.101775,239.69849 L180.96479,239.795744 C185.541324,240.275841 189.673146,240.110566 192.141458,237.961454 C192.060933,237.561234 191.923833,237.035565 191.741415,236.397994 L191.501482,235.580063 L191.501482,235.580063 L191.222367,234.659906 L191.222367,234.659906 L189.800541,230.061053 L189.800541,230.061053 L189.390356,228.707791 L189.390356,228.707791 L188.966926,227.283512 L188.966926,227.283512 L188.534573,225.793417 C182.947276,206.270474 176.223533,171.773365 209.477349,171.773365 Z" id="Spiderman"></path>
        </g>
    </g>
</svg>